<?xml version="1.0" encoding="UTF-8"?>
<svg width="311px" height="621px" viewBox="0 0 311 621" version="1.1" xmlns="http://www.w3.org/2000/svg" xmlns:xlink="http://www.w3.org/1999/xlink">
    <!-- Generator: Sketch 58 (84663) - https://sketch.com -->
    <title>board</title>
    <desc>Created with Sketch.</desc>
    <g id="board" stroke="none" stroke-width="1" fill="none" fill-rule="evenodd" fill-opacity="0.5">
        <rect id="Rectangle" fill="#FFFFFF" x="0" y="31" width="311" height="1"></rect>
        <rect id="Rectangle-Copy-254" fill="#FFFFFF" x="0" y="0" width="311" height="1"></rect>
        <rect id="Rectangle-Copy-219" fill="#FFFFFF" x="0" y="155" width="311" height="1"></rect>
        <rect id="Rectangle-Copy-223" fill="#FFFFFF" x="0" y="341" width="311" height="1"></rect>
        <rect id="Rectangle-Copy-229" fill="#FFFFFF" x="0" y="527" width="311" height="1"></rect>
        <rect id="Rectangle-Copy-217" fill="#FFFFFF" x="0" y="93" width="311" height="1"></rect>
        <rect id="Rectangle-Copy-224" fill="#FFFFFF" x="0" y="279" width="311" height="1"></rect>
        <rect id="Rectangle-Copy-230" fill="#FFFFFF" x="0" y="465" width="311" height="1"></rect>
        <rect id="Rectangle-Copy-220" fill="#FFFFFF" x="0" y="217" width="311" height="1"></rect>
        <rect id="Rectangle-Copy-225" fill="#FFFFFF" x="0" y="403" width="311" height="1"></rect>
        <rect id="Rectangle-Copy-231" fill="#FFFFFF" x="0" y="589" width="311" height="1"></rect>
        <rect id="Rectangle-Copy-216" fill="#FFFFFF" x="0" y="62" width="311" height="1"></rect>
        <rect id="Rectangle-Copy-221" fill="#FFFFFF" x="0" y="186" width="311" height="1"></rect>
        <rect id="Rectangle-Copy-226" fill="#FFFFFF" x="0" y="372" width="311" height="1"></rect>
        <rect id="Rectangle-Copy-232" fill="#FFFFFF" x="0" y="558" width="311" height="1"></rect>
        <rect id="Rectangle-Copy-255" fill="#FFFFFF" x="0" y="620" width="311" height="1"></rect>
        <rect id="Rectangle-Copy-218" fill="#FFFFFF" x="0" y="124" width="311" height="1"></rect>
        <rect id="Rectangle-Copy-227" fill="#FFFFFF" x="0" y="310" width="311" height="1"></rect>
        <rect id="Rectangle-Copy-233" fill="#FFFFFF" x="0" y="496" width="311" height="1"></rect>
        <rect id="Rectangle-Copy-222" fill="#FFFFFF" x="0" y="248" width="311" height="1"></rect>
        <rect id="Rectangle-Copy-228" fill="#FFFFFF" x="0" y="434" width="311" height="1"></rect>
        <rect id="Rectangle" fill="#FFFFFF" x="31" y="0" width="1" height="621"></rect>
        <rect id="Rectangle-Copy-253" fill="#FFFFFF" x="0" y="0" width="1" height="620"></rect>
        <rect id="Rectangle-Copy-237" fill="#FFFFFF" x="155" y="0" width="1" height="621"></rect>
        <rect id="Rectangle-Copy-241" fill="#FFFFFF" x="279" y="0" width="1" height="621"></rect>
        <rect id="Rectangle-Copy-252" fill="#FFFFFF" x="310" y="1" width="1" height="620"></rect>
        <rect id="Rectangle-Copy-235" fill="#FFFFFF" x="93" y="0" width="1" height="621"></rect>
        <rect id="Rectangle-Copy-238" fill="#FFFFFF" x="217" y="0" width="1" height="621"></rect>
        <rect id="Rectangle-Copy-234" fill="#FFFFFF" x="62" y="0" width="1" height="621"></rect>
        <rect id="Rectangle-Copy-239" fill="#FFFFFF" x="186" y="0" width="1" height="621"></rect>
        <rect id="Rectangle-Copy-236" fill="#FFFFFF" x="124" y="0" width="1" height="621"></rect>
        <rect id="Rectangle-Copy-240" fill="#FFFFFF" x="248" y="0" width="1" height="621"></rect>
    </g>
</svg>